# xmcd
#
# Track frame offsets: 
#        150
#        14548
#        31947
#        53355
#        68838
#        84027
#        102556
#        120430
#        136951
#        152588
#        172840
#        188435
#        205524
#
# Disc length: 2984 seconds
#
# Revision: 0
# Processed by: cddbd v1.5.2PL0 Copyright (c) Steve Scherf et al.
# Submitted via: ExactAudioCopyFreeDBPlugin 1.0
#
DISCID=8f0ba60d
DTITLE=倪雅丰 - DTS51江南风韵
DYEAR=2010
DGENRE=DTS
TTITLE0=太湖美
TTITLE1=紫竹调
TTITLE2=烟花三月
TTITLE3=三笑
TTITLE4=对花
TTITLE5=孟姜女
TTITLE6=天女散花
TTITLE7=红雪莲
TTITLE8=晴雯歌
TTITLE9=女孩
TTITLE10=夏日里最后一朵玫瑰
TTITLE11=蔷薇
TTITLE12=秋缘
EXTD=
EXTT0=
EXTT1=
EXTT2=
EXTT3=
EXTT4=
EXTT5=
EXTT6=
EXTT7=
EXTT8=
EXTT9=
EXTT10=
EXTT11=
EXTT12=
PLAYORDER=
